<?xml version="1.0" encoding="UTF-8"?>
<svg id="Layer_2" data-name="Layer 2" xmlns="http://www.w3.org/2000/svg" viewBox="0 0 149.96 38.33">
  <g id="Layer_1-2" data-name="Layer 1">
    <g>
      <path d="M24.57,19.59v18.11h-6.67v-17c0-3.49-1.75-5.19-5.14-5.19-2.91,0-6.09,2.01-6.09,6.88v15.3H0V10.38h6.46v3.92c1.75-2.59,4.66-4.55,8.52-4.55,5.72,0,9.58,3.34,9.58,9.85Z"/>
      <path d="M26.11,24.04c0-8.68,5.61-14.3,13.93-14.3s13.87,5.61,13.87,14.3-5.56,14.3-13.87,14.3-13.93-5.61-13.93-14.3ZM47.13,24.04c0-5.77-2.81-8.79-7.09-8.79s-7.09,3.02-7.09,8.79,2.75,8.79,7.09,8.79,7.09-3.02,7.09-8.79Z"/>
      <path d="M62.91,15.46v14.77c0,1.8.9,2.38,3.12,2.38h2.28v5.08c-1.22.11-2.44.21-3.5.21-5.77,0-8.52-1.96-8.52-6.99v-15.46h-4.24v-5.08h4.24V2.44h6.62v7.94h5.4v5.08h-5.4Z"/>
      <path d="M96.95,24.04c0,8.68-4.71,14.3-12.23,14.3-3.97,0-6.88-1.69-8.74-4.55v3.92h-6.41V0h6.67v13.93c1.85-2.65,4.66-4.18,8.47-4.18,7.52,0,12.23,5.61,12.23,14.3ZM90.18,23.83c0-5.77-2.7-8.58-7.04-8.58s-7.04,3.02-7.04,8.79,2.7,8.79,7.04,8.79,7.04-3.23,7.04-9Z"/>
      <path d="M116.07,37.7c-.42-.74-.64-2.01-.74-3.34-1.8,2.54-4.77,3.97-8.79,3.97-5.82,0-9.85-2.91-9.85-8.21,0-4.55,2.75-7.78,10.48-8.52l4.13-.37c2.54-.32,3.87-1.11,3.87-3.12,0-2.12-1.11-3.39-4.98-3.39s-5.4,1.01-5.67,4.34h-6.57c.37-5.77,3.76-9.32,12.28-9.32s11.38,3.28,11.38,8.21v14.56c0,1.96.37,4.13,1.11,5.19h-6.67ZM115.17,26.9v-2.49c-.69.64-1.69.95-3.12,1.11l-3.6.42c-3.71.42-4.92,1.75-4.92,3.92s1.54,3.71,4.61,3.71c3.55,0,7.04-1.91,7.04-6.67Z"/>
      <path d="M149.96,0v37.7h-6.46v-3.81c-1.85,2.75-4.71,4.45-8.63,4.45-7.57,0-12.28-5.61-12.28-14.3s4.71-14.3,12.28-14.3c3.76,0,6.57,1.54,8.42,4.18V0h6.67ZM143.45,24.04c0-5.77-2.7-8.79-7.04-8.79s-6.99,3.23-6.99,9,2.7,8.58,6.99,8.58,7.04-3.02,7.04-8.79Z"/>
    </g>
  </g>
</svg>